<svg width="1492" height="218" viewBox="0 0 1492 218" fill="none" xmlns="http://www.w3.org/2000/svg">
<path d="M76.4288 242.012C71.9487 242.012 68.4913 240.356 66.0565 237.045C63.7191 233.733 62.1608 229.545 61.3817 224.481C60.6025 219.319 60.213 214.109 60.213 208.85C60.213 202.129 60.4564 195.312 60.9434 188.397C61.4304 181.385 61.6738 174.908 61.6738 168.967C61.6738 160.884 60.7486 154.456 58.8982 149.684C57.0477 144.814 53.8825 141.308 49.4024 139.165C44.9224 137.023 38.6893 135.951 30.7031 135.951H20.9152V236.899H34.3553V239.82H-5.81904V236.899H7.76719V38.2182H-5.81904V35.2964H39.7606C47.1624 35.2964 53.639 36.9521 59.1903 40.2634C64.7417 43.4774 69.027 48.5905 72.0461 55.6027C75.1627 62.5176 76.721 71.575 76.721 82.7752C76.721 91.4431 75.747 98.991 73.7992 105.419C71.8513 111.749 69.2705 117.009 66.0565 121.196C62.8426 125.287 59.1903 128.403 55.0999 130.546C51.0094 132.689 46.8702 133.955 42.6823 134.344C51.7398 134.442 58.5086 136.39 62.9886 140.188C67.4687 143.986 70.4392 149.197 71.9 155.819C73.4583 162.442 74.2375 170.136 74.2375 178.901C74.2375 183.674 74.1401 188.543 73.9453 193.51C73.7505 198.477 73.6531 203.396 73.6531 208.265C73.6531 211.869 73.7992 215.959 74.0914 220.537C74.4809 225.017 75.2114 228.864 76.2827 232.078C77.354 235.292 79.0097 236.899 81.2497 236.899C82.0288 236.899 82.7593 236.558 83.441 235.876C84.2202 235.097 84.6584 234.22 84.7558 233.246H87.3854C87.288 234.999 86.7037 236.558 85.6324 237.921C84.561 239.187 83.1976 240.161 81.5419 240.843C79.8862 241.622 78.1818 242.012 76.4288 242.012ZM20.9152 133.03H34.9396C42.2441 133.03 47.8928 130.741 51.8859 126.163C55.9764 121.489 58.8495 115.402 60.5051 107.902C62.1608 100.403 62.9886 92.2222 62.9886 83.3595C62.9886 75.1786 62.4043 67.6794 61.2356 60.8619C60.1643 54.0444 57.7295 48.5905 53.9312 44.5C50.2302 40.3121 44.5328 38.2182 36.8388 38.2182H20.9152V133.03ZM100.323 239.82V236.899H113.325V38.2182H100.323V35.2964H173.806V73.1333H170.884C170.884 65.2446 170.348 58.7193 169.277 53.5575C168.303 48.2983 166.161 44.4513 162.849 42.0165C159.538 39.4843 154.279 38.2182 147.072 38.2182H126.619V135.951H160.804V118.421H163.726V156.112H160.804V138.873H126.619V236.899H145.903C153.11 236.899 158.467 235.584 161.973 232.954C165.576 230.325 167.962 226.429 169.131 221.267C170.3 216.008 170.884 209.434 170.884 201.545H173.806V239.82H100.323ZM223.51 243.765C220.296 243.765 217.326 243.278 214.599 242.304C211.872 241.427 209.388 240.405 207.148 239.236C205.006 238.067 203.107 237.045 201.451 236.168C199.893 235.194 198.578 234.707 197.506 234.707C195.851 234.707 195.023 236.412 195.023 239.82H192.393V198.916H195.315C195.51 202.909 196.143 206.902 197.214 210.895C198.286 214.888 199.649 218.637 201.305 222.144C203.058 225.65 205.054 228.766 207.294 231.493C209.632 234.22 212.115 236.412 214.745 238.067C217.472 239.626 220.345 240.405 223.364 240.405C230.084 240.405 235.1 238.554 238.411 234.853C241.723 231.152 243.914 226.526 244.985 220.975C246.057 215.326 246.592 209.677 246.592 204.029C246.592 196.627 245.131 189.079 242.21 181.385C239.288 173.594 235.636 165.948 231.253 158.449C226.87 150.95 222.439 143.986 217.959 137.558C210.849 127.235 205.395 118.275 201.597 110.678C197.799 103.081 195.169 96.3127 193.708 90.3718C192.247 84.3334 191.517 78.4412 191.517 72.6951C191.517 64.2219 192.88 56.9662 195.607 50.9279C198.432 44.7922 202.133 40.1173 206.71 36.9034C211.287 33.6894 216.449 32.0825 222.195 32.0825C226.578 32.0825 230.279 32.6668 233.298 33.8355C236.415 35.0042 238.947 36.2216 240.895 37.4877C242.843 38.7538 244.303 39.3869 245.277 39.3869C246.057 39.3869 246.641 39.0947 247.03 38.5104C247.42 37.926 247.664 36.8547 247.761 35.2964H250.391V75.7629H247.469C247.177 70.9907 246.495 66.2185 245.423 61.4462C244.45 56.674 242.989 52.3401 241.041 48.4444C239.19 44.4513 236.756 41.286 233.736 38.9486C230.717 36.5138 227.114 35.2964 222.926 35.2964C217.569 35.2964 212.651 37.6338 208.171 42.3086C203.788 46.8861 201.597 54.3366 201.597 64.6602C201.597 69.9194 202.279 75.422 203.642 81.1682C205.006 86.817 207.44 93.0988 210.947 100.014C214.55 106.831 219.517 114.769 225.848 123.826C231.204 131.228 236.269 138.873 241.041 146.762C245.813 154.651 249.66 162.734 252.582 171.013C255.504 179.194 256.964 187.667 256.964 196.432C256.964 202.763 256.283 208.801 254.919 214.547C253.556 220.196 251.462 225.211 248.637 229.594C245.91 233.977 242.453 237.434 238.265 239.966C234.077 242.499 229.159 243.765 223.51 243.765ZM273.406 239.82V236.899H286.993V38.2182H273.406V35.2964H314.019V38.2182H300.141V236.899H314.019V239.82H273.406ZM331.44 239.82V236.899H344.442V38.2182H331.44V35.2964H368.839C377.896 35.2964 386.077 38.9486 393.381 46.253C400.783 53.4601 406.676 64.5141 411.058 79.4151C415.441 94.2188 417.632 113.064 417.632 135.951C417.632 159.033 415.441 178.268 411.058 193.656C406.676 209.044 400.783 220.585 393.381 228.279C385.98 235.973 377.799 239.82 368.839 239.82H331.44ZM357.736 236.899H365.332C371.955 236.899 378.14 233.441 383.886 226.526C389.729 219.611 394.404 208.752 397.91 193.949C401.514 179.047 403.316 159.715 403.316 135.951C403.316 115.207 401.709 97.5788 398.495 83.0673C395.378 68.5559 391.288 57.4532 386.223 49.7592C381.256 42.0652 375.997 38.2182 370.446 38.2182H357.736V236.899ZM432.732 239.82V236.899H445.734V38.2182H432.732V35.2964H506.214V73.1333H503.293C503.293 65.2446 502.757 58.7193 501.686 53.5575C500.712 48.2983 498.569 44.4513 495.258 42.0165C491.946 39.4843 486.687 38.2182 479.48 38.2182H459.028V135.951H493.212V118.421H496.134V156.112H493.212V138.873H459.028V236.899H478.311C485.518 236.899 490.875 235.584 494.381 232.954C497.985 230.325 500.371 226.429 501.539 221.267C502.708 216.008 503.293 209.434 503.293 201.545H506.214V239.82H432.732ZM522.464 239.82V236.899H535.758V38.2182H522.464V35.2964H550.075L601.644 207.389H600.33V38.2182H586.597V35.2964H616.253V38.2182H603.543V239.82H598.576L538.242 41.7243H538.972V236.899H554.458V239.82H522.464ZM633.074 239.82V236.899L682.306 38.2182H665.213C657.617 38.2182 651.773 39.4843 647.683 42.0165C643.69 44.4513 640.914 48.2983 639.356 53.5575C637.895 58.7193 637.164 65.2446 637.164 73.1333H634.243V35.2964H695.892V38.2182L645.784 236.899H667.113C673.833 236.899 679.043 235.584 682.744 232.954C686.445 230.325 689.026 226.429 690.487 221.267C691.948 216.008 692.678 209.434 692.678 201.545H695.6V239.82H633.074ZM706.616 239.82V236.899H720.202L750.442 34.7121H753.364L783.312 236.899H796.898V239.82H755.994V236.899H768.849L746.206 75.0325H747.374L723.562 236.899H735.98V239.82H706.616ZM729.552 185.037V181.969H764.613V185.037H729.552ZM844.747 239.82V236.899H857.749V38.2182H844.747V35.2964H882.146C891.203 35.2964 899.384 38.9486 906.689 46.253C914.09 53.4601 919.983 64.5141 924.365 79.4151C928.748 94.2188 930.939 113.064 930.939 135.951C930.939 159.033 928.748 178.268 924.365 193.656C919.983 209.044 914.09 220.585 906.689 228.279C899.287 235.973 891.106 239.82 882.146 239.82H844.747ZM871.043 236.899H878.64C885.262 236.899 891.447 233.441 897.193 226.526C903.036 219.611 907.711 208.752 911.217 193.949C914.821 179.047 916.623 159.715 916.623 135.951C916.623 115.207 915.016 97.5788 911.802 83.0673C908.685 68.5559 904.595 57.4532 899.53 49.7592C894.563 42.0652 889.304 38.2182 883.753 38.2182H871.043V236.899ZM984.62 243.034C976.342 243.034 969.329 238.506 963.583 229.448C957.837 220.293 953.454 207.827 950.435 192.049C947.416 176.272 945.906 158.206 945.906 137.851C945.906 117.398 947.416 99.2345 950.435 83.3595C953.454 67.4846 957.837 54.9697 963.583 45.8148C969.329 36.6599 976.342 32.0825 984.62 32.0825C992.898 32.0825 999.959 36.6599 1005.8 45.8148C1011.74 54.9697 1016.22 67.4846 1019.24 83.3595C1022.36 99.2345 1023.92 117.398 1023.92 137.851C1023.92 158.206 1022.36 176.272 1019.24 192.049C1016.22 207.827 1011.74 220.293 1005.8 229.448C999.959 238.506 992.898 243.034 984.62 243.034ZM984.62 240.112C989.295 240.112 993.19 237.434 996.307 232.078C999.521 226.721 1002.1 219.319 1004.05 209.872C1006.09 200.328 1007.56 189.42 1008.43 177.148C1009.41 164.78 1009.89 151.68 1009.89 137.851C1009.89 124.021 1009.41 110.922 1008.43 98.5527C1007.56 86.1839 1006.09 75.2273 1004.05 65.6828C1002.1 56.1384 999.521 48.6391 996.307 43.1852C993.19 37.7312 989.295 35.0042 984.62 35.0042C980.14 35.0042 976.293 37.7312 973.079 43.1852C969.962 48.6391 967.43 56.1384 965.482 65.6828C963.632 75.2273 962.22 86.1839 961.246 98.5527C960.369 110.922 959.931 124.021 959.931 137.851C959.931 151.68 960.369 164.78 961.246 177.148C962.22 189.42 963.632 200.328 965.482 209.872C967.43 219.319 969.962 226.721 973.079 232.078C976.293 237.434 980.14 240.112 984.62 240.112ZM1038.91 239.82V236.899H1052.2V38.2182H1038.91V35.2964H1066.52L1118.09 207.389H1116.78V38.2182H1103.04V35.2964H1132.7V38.2182H1119.99V239.82H1115.02L1054.69 41.7243H1055.42V236.899H1070.9V239.82H1038.91ZM1147.62 239.82V236.899H1160.91V38.2182H1147.62V35.2964H1175.23L1226.8 207.389H1225.49V38.2182H1211.75V35.2964H1241.41V38.2182H1228.7V239.82H1223.73L1163.4 41.7243H1164.13V236.899H1179.61V239.82H1147.62ZM1249.03 239.82V236.899H1262.61L1292.85 34.7121H1295.77L1325.72 236.899H1339.31V239.82H1298.4V236.899H1311.26L1288.62 75.0325H1289.79L1265.97 236.899H1278.39V239.82H1249.03ZM1271.96 185.037V181.969H1307.02V185.037H1271.96ZM1381.87 242.742C1369.98 242.742 1360.05 233.928 1352.06 216.3C1344.18 198.672 1340.23 172.522 1340.23 137.851C1340.23 125.579 1341.01 113.259 1342.57 100.89C1344.22 88.4239 1346.76 77.029 1350.17 66.7054C1353.67 56.2845 1358.1 47.9087 1363.46 41.5782C1368.82 35.2477 1375.2 32.0825 1382.6 32.0825C1387.76 32.0825 1392.09 33.9329 1395.6 37.6338C1399.2 41.3347 1401.93 46.0096 1403.78 51.6583C1405.63 57.3071 1406.56 63.1019 1406.56 69.0429C1406.56 73.3281 1406.02 76.3473 1404.95 78.1003C1403.97 79.8534 1402.51 80.7299 1400.57 80.7299C1398.52 80.7299 1397.01 79.9021 1396.04 78.2464C1395.16 76.4934 1394.72 73.9612 1394.72 70.6498C1394.72 68.5072 1394.97 66.608 1395.45 64.9524C1395.94 63.2967 1396.43 61.4462 1396.91 59.401C1397.4 57.3558 1397.64 54.8236 1397.64 51.8044C1397.64 48.0061 1396.38 44.4026 1393.85 40.9939C1391.31 37.5851 1388.2 35.8808 1384.5 35.8808C1380.5 35.8808 1376.85 38.1208 1373.54 42.6008C1370.33 47.0809 1367.5 53.0218 1365.07 60.4236C1362.73 67.7281 1360.73 75.8603 1359.08 84.8204C1357.42 93.7805 1356.2 102.838 1355.42 111.993C1354.65 121.148 1354.26 129.67 1354.26 137.558C1354.26 149.148 1354.69 160.105 1355.57 170.428C1356.45 180.654 1357.71 189.955 1359.37 198.331C1361.02 206.707 1363.02 213.963 1365.36 220.098C1367.79 226.234 1370.52 230.958 1373.54 234.269C1376.56 237.58 1379.87 239.236 1383.47 239.236C1387.66 239.236 1391.31 237.629 1394.43 234.415C1397.64 231.201 1400.32 227.5 1402.46 223.312C1404.61 219.027 1406.07 215.326 1406.85 212.21L1410.06 214.109C1408.41 218.881 1406.26 223.458 1403.63 227.841C1401 232.126 1397.89 235.681 1394.28 238.506C1390.68 241.33 1386.54 242.742 1381.87 242.742ZM1415.66 239.82V236.899H1429.24L1459.49 34.7121H1462.41L1492.36 236.899H1505.94V239.82H1465.04V236.899H1477.89L1455.25 75.0325H1456.42L1432.6 236.899H1445.02V239.82H1415.66ZM1438.59 185.037V181.969H1473.66V185.037H1438.59ZM1478.62 27.2615L1451.45 15.2823C1449.02 14.211 1446.78 12.9449 1444.73 11.484C1442.68 9.92569 1441.66 8.02654 1441.66 5.78652C1441.66 4.52042 1442.1 3.4004 1442.98 2.42648C1443.85 1.45256 1445.27 0.965597 1447.21 0.965597C1449.16 0.965597 1450.87 1.40387 1452.33 2.2804C1453.89 3.05954 1455.3 4.08216 1456.56 5.34827L1479.35 26.0928L1478.62 27.2615Z" fill="#212121"/>
</svg>
