<svg width="1504" height="208" viewBox="0 0 1504 208" fill="none" xmlns="http://www.w3.org/2000/svg">
<path d="M80.1446 232.81C75.8272 232.81 72.4954 231.214 70.149 228.023C67.8965 224.832 66.3948 220.797 65.6439 215.916C64.8931 210.942 64.5177 205.92 64.5177 200.852C64.5177 194.376 64.7523 187.806 65.2216 181.143C65.6908 174.385 65.9255 168.144 65.9255 162.419C65.9255 154.629 65.0339 148.434 63.2506 143.835C61.4674 139.142 58.4171 135.764 54.0997 133.699C49.7824 131.634 43.7757 130.602 36.0795 130.602H26.6471V227.883H39.5991V230.698H0.883837V227.883H13.9766V36.418H0.883837V33.6023H44.8081C51.9411 33.6023 58.1824 35.1979 63.5322 38.3889C68.8819 41.4862 73.0116 46.4136 75.9211 53.1711C78.9244 59.8349 80.4261 68.5634 80.4261 79.3567C80.4261 87.7098 79.4876 94.9836 77.6105 101.178C75.7334 107.279 73.2462 112.347 70.149 116.383C67.0518 120.325 63.5322 123.328 59.5903 125.393C55.6483 127.458 51.6595 128.678 47.6237 129.053C56.3523 129.147 62.8752 131.024 67.1925 134.684C71.5099 138.345 74.3725 143.366 75.7803 149.748C77.282 156.13 78.0328 163.545 78.0328 171.992C78.0328 176.591 77.939 181.283 77.7512 186.07C77.5635 190.857 77.4697 195.596 77.4697 200.289C77.4697 203.762 77.6105 207.704 77.892 212.115C78.2675 216.432 78.9714 220.14 80.0038 223.237C81.0362 226.334 82.6317 227.883 84.7904 227.883C85.5412 227.883 86.2451 227.554 86.9021 226.897C87.653 226.146 88.0753 225.302 88.1692 224.363H90.7033C90.6094 226.052 90.0463 227.554 89.0139 228.868C87.9815 230.088 86.6675 231.027 85.072 231.684C83.4764 232.435 81.8339 232.81 80.1446 232.81ZM26.6471 127.786H40.1622C47.2014 127.786 52.645 125.58 56.493 121.169C60.435 116.664 63.2037 110.798 64.7992 103.571C66.3948 96.3445 67.1925 88.4607 67.1925 79.9199C67.1925 72.036 66.6294 64.8092 65.5031 58.2393C64.4707 51.6695 62.1244 46.4136 58.464 42.4716C54.8975 38.4359 49.407 36.418 41.9924 36.418H26.6471V127.786ZM103.171 230.698V227.883H115.701V36.418H103.171V33.6023H173.985V70.0651H171.169C171.169 62.4628 170.653 56.1745 169.621 51.2002C168.682 46.132 166.617 42.4247 163.426 40.0783C160.235 37.6381 155.167 36.418 148.222 36.418H128.512V130.602H161.455V113.708H164.271V150.03H161.455V133.417H128.512V227.883H147.096C154.041 227.883 159.203 226.616 162.582 224.081C166.054 221.547 168.354 217.793 169.48 212.819C170.606 207.751 171.169 201.415 171.169 193.813H173.985V230.698H103.171ZM221.884 234.499C218.787 234.499 215.924 234.03 213.296 233.092C210.669 232.247 208.275 231.261 206.117 230.135C204.052 229.009 202.222 228.023 200.626 227.179C199.124 226.24 197.857 225.771 196.825 225.771C195.229 225.771 194.432 227.413 194.432 230.698H191.897V191.279H194.713C194.901 195.127 195.511 198.975 196.543 202.823C197.576 206.671 198.89 210.285 200.485 213.664C202.175 217.042 204.099 220.046 206.257 222.674C208.51 225.302 210.903 227.413 213.437 229.009C216.065 230.511 218.834 231.261 221.743 231.261C228.219 231.261 233.053 229.478 236.244 225.912C239.435 222.345 241.547 217.887 242.579 212.537C243.612 207.094 244.128 201.65 244.128 196.206C244.128 189.073 242.72 181.8 239.904 174.385C237.089 166.877 233.569 159.509 229.346 152.282C225.122 145.055 220.852 138.345 216.534 132.15C209.683 122.202 204.427 113.567 200.767 106.246C197.106 98.9255 194.572 92.4026 193.165 86.6774C191.757 80.8584 191.053 75.1802 191.053 69.6427C191.053 61.4773 192.367 54.4851 194.995 48.6661C197.717 42.7532 201.283 38.2482 205.694 35.1509C210.105 32.0537 215.08 30.5051 220.617 30.5051C224.841 30.5051 228.407 31.0682 231.317 32.1945C234.32 33.3208 236.76 34.4939 238.637 35.7141C240.514 36.9342 241.922 37.5442 242.861 37.5442C243.612 37.5442 244.175 37.2627 244.55 36.6996C244.926 36.1364 245.16 35.104 245.254 33.6023H247.788V72.5992H244.973C244.691 68.0003 244.034 63.4014 243.002 58.8024C242.063 54.2035 240.655 50.027 238.778 46.2728C236.995 42.4247 234.649 39.3744 231.739 37.1219C228.83 34.7755 225.357 33.6023 221.321 33.6023C216.159 33.6023 211.419 35.8548 207.102 40.3599C202.879 44.7711 200.767 51.951 200.767 61.8997C200.767 66.9678 201.424 72.2707 202.738 77.8081C204.052 83.2517 206.398 89.3054 209.777 95.9691C213.25 102.539 218.036 110.188 224.137 118.917C229.299 126.05 234.179 133.417 238.778 141.02C243.377 148.622 247.084 156.412 249.9 164.39C252.716 172.273 254.123 180.439 254.123 188.886C254.123 194.986 253.467 200.805 252.153 206.343C250.839 211.786 248.821 216.62 246.099 220.843C243.471 225.067 240.139 228.399 236.103 230.839C232.068 233.279 227.328 234.499 221.884 234.499ZM269.968 230.698V227.883H283.061V36.418H269.968V33.6023H309.106V36.418H295.731V227.883H309.106V230.698H269.968ZM325.894 230.698V227.883H338.424V36.418H325.894V33.6023H361.934C370.663 33.6023 378.547 37.1219 385.586 44.161C392.719 51.1063 398.397 61.7589 402.621 76.1187C406.844 90.3847 408.956 108.546 408.956 130.602C408.956 152.845 406.844 171.382 402.621 186.211C398.397 201.04 392.719 212.162 385.586 219.576C378.453 226.991 370.569 230.698 361.934 230.698H325.894ZM351.235 227.883H358.556C364.938 227.883 370.898 224.551 376.435 217.887C382.066 211.223 386.571 200.758 389.95 186.492C393.423 172.133 395.159 153.502 395.159 130.602C395.159 110.611 393.611 93.6227 390.513 79.6383C387.51 65.6539 383.568 54.9544 378.688 47.5398C373.901 40.1253 368.833 36.418 363.483 36.418H351.235V227.883ZM423.507 230.698V227.883H436.037V36.418H423.507V33.6023H494.321V70.0651H491.505C491.505 62.4628 490.989 56.1745 489.957 51.2002C489.018 46.132 486.953 42.4247 483.762 40.0783C480.571 37.6381 475.503 36.418 468.558 36.418H448.848V130.602H481.791V113.708H484.607V150.03H481.791V133.417H448.848V227.883H467.431C474.377 227.883 479.539 226.616 482.918 224.081C486.39 221.547 488.69 217.793 489.816 212.819C490.942 207.751 491.505 201.415 491.505 193.813H494.321V230.698H423.507ZM509.981 230.698V227.883H522.792V36.418H509.981V33.6023H536.589L586.285 199.444H585.018V36.418H571.784V33.6023H600.363V36.418H588.115V230.698H583.329L525.185 39.7968H525.889V227.883H540.812V230.698H509.981ZM616.573 230.698V227.883L664.017 36.418H647.545C640.225 36.418 634.593 37.6381 630.651 40.0783C626.803 42.4247 624.129 46.132 622.627 51.2002C621.219 56.1745 620.515 62.4628 620.515 70.0651H617.699V33.6023H677.11V36.418L628.821 227.883H649.376C655.852 227.883 660.873 226.616 664.439 224.081C668.006 221.547 670.493 217.793 671.901 212.819C673.309 207.751 674.013 201.415 674.013 193.813H676.828V230.698H616.573ZM687.444 230.698V227.883H700.537L729.679 33.0392H732.495L761.355 227.883H774.448V230.698H735.029V227.883H747.418L725.596 71.8953H726.722L703.775 227.883H715.741V230.698H687.444ZM709.547 177.905V174.948H743.335V177.905H709.547ZM820.559 230.698V227.883H833.088V36.418H820.559V33.6023H856.599C865.328 33.6023 873.211 37.1219 880.251 44.161C887.384 51.1063 893.062 61.7589 897.285 76.1187C901.509 90.3847 903.62 108.546 903.62 130.602C903.62 152.845 901.509 171.382 897.285 186.211C893.062 201.04 887.384 212.162 880.251 219.576C873.118 226.991 865.234 230.698 856.599 230.698H820.559ZM845.9 227.883H853.22C859.602 227.883 865.562 224.551 871.1 217.887C876.731 211.223 881.236 200.758 884.615 186.492C888.087 172.133 889.824 153.502 889.824 130.602C889.824 110.611 888.275 93.6227 885.178 79.6383C882.175 65.6539 878.233 54.9544 873.352 47.5398C868.566 40.1253 863.497 36.418 858.148 36.418H845.9V227.883ZM955.352 233.795C947.374 233.795 940.616 229.431 935.079 220.703C929.541 211.88 925.318 199.867 922.408 184.662C919.499 169.458 918.044 152.048 918.044 132.432C918.044 112.722 919.499 95.2183 922.408 79.9199C925.318 64.6215 929.541 52.5611 935.079 43.7387C940.616 34.9163 947.374 30.5051 955.352 30.5051C963.329 30.5051 970.134 34.9163 975.765 43.7387C981.49 52.5611 985.808 64.6215 988.717 79.9199C991.72 95.2183 993.222 112.722 993.222 132.432C993.222 152.048 991.72 169.458 988.717 184.662C985.808 199.867 981.49 211.88 975.765 220.703C970.134 229.431 963.329 233.795 955.352 233.795ZM955.352 230.98C959.857 230.98 963.611 228.399 966.614 223.237C969.711 218.075 972.199 210.942 974.076 201.838C976.047 192.64 977.454 182.128 978.299 170.302C979.238 158.383 979.707 145.759 979.707 132.432C979.707 119.104 979.238 106.481 978.299 94.5613C977.454 82.6417 976.047 72.083 974.076 62.8852C972.199 53.6873 969.711 46.4605 966.614 41.2046C963.611 35.9487 959.857 33.3208 955.352 33.3208C951.034 33.3208 947.327 35.9487 944.23 41.2046C941.226 46.4605 938.786 53.6873 936.909 62.8852C935.126 72.083 933.765 82.6417 932.826 94.5613C931.982 106.481 931.559 119.104 931.559 132.432C931.559 145.759 931.982 158.383 932.826 170.302C933.765 182.128 935.126 192.64 936.909 201.838C938.786 210.942 941.226 218.075 944.23 223.237C947.327 228.399 951.034 230.98 955.352 230.98ZM1007.67 230.698V227.883H1020.48V36.418H1007.67V33.6023H1034.28L1083.97 199.444H1082.71V36.418H1069.47V33.6023H1098.05V36.418H1085.8V230.698H1081.02L1022.87 39.7968H1023.58V227.883H1038.5V230.698H1007.67ZM1112.43 230.698V227.883H1125.24V36.418H1112.43V33.6023H1139.04L1188.74 199.444H1187.47V36.418H1174.24V33.6023H1202.81V36.418H1190.57V230.698H1185.78L1127.64 39.7968H1128.34V227.883H1143.26V230.698H1112.43ZM1210.16 230.698V227.883H1223.25L1252.39 33.0392H1255.21L1284.07 227.883H1297.16V230.698H1257.74V227.883H1270.13L1248.31 71.8953H1249.43L1226.49 227.883H1238.45V230.698H1210.16ZM1232.26 177.905V174.948H1266.05V177.905H1232.26ZM1383.82 233.514C1372.36 233.514 1362.79 225.02 1355.1 208.032C1347.49 191.044 1343.69 165.844 1343.69 132.432C1343.69 120.606 1344.44 108.733 1345.94 96.8138C1347.54 84.8003 1349.98 73.8193 1353.27 63.8706C1356.64 53.8281 1360.91 45.7566 1366.08 39.656C1371.24 33.5554 1377.39 30.5051 1384.52 30.5051C1389.49 30.5051 1393.67 32.2884 1397.05 35.8549C1400.52 39.4213 1403.15 43.9264 1404.93 49.37C1406.72 54.8136 1407.61 60.398 1407.61 66.1232C1407.61 70.2528 1407.09 73.1623 1406.06 74.8517C1405.12 76.5411 1403.71 77.3858 1401.84 77.3858C1399.86 77.3858 1398.41 76.588 1397.47 74.9925C1396.63 73.3031 1396.2 70.8628 1396.2 67.6718C1396.2 65.6069 1396.44 63.7768 1396.91 62.1812C1397.38 60.5857 1397.85 58.8024 1398.32 56.8315C1398.79 54.8605 1399.02 52.4203 1399.02 49.5108C1399.02 45.8504 1397.8 42.3778 1395.36 39.0929C1392.92 35.8079 1389.92 34.1655 1386.35 34.1655C1382.5 34.1655 1378.98 36.3241 1375.79 40.6415C1372.69 44.9588 1369.97 50.684 1367.63 57.817C1365.37 64.8561 1363.45 72.693 1361.85 81.3277C1360.26 89.9624 1359.08 98.6909 1358.33 107.513C1357.58 116.336 1357.21 124.548 1357.21 132.15C1357.21 143.319 1357.63 153.878 1358.47 163.826C1359.32 173.681 1360.54 182.644 1362.13 190.716C1363.73 198.787 1365.65 205.78 1367.91 211.693C1370.25 217.605 1372.88 222.157 1375.79 225.348C1378.7 228.54 1381.89 230.135 1385.36 230.135C1389.4 230.135 1392.92 228.587 1395.92 225.489C1399.02 222.392 1401.6 218.826 1403.67 214.79C1405.73 210.66 1407.14 207.094 1407.89 204.09L1410.99 205.92C1409.39 210.519 1407.33 214.931 1404.79 219.154C1402.26 223.284 1399.25 226.709 1395.78 229.431C1392.31 232.153 1388.32 233.514 1383.82 233.514ZM1416.38 230.698V227.883H1429.47L1458.61 33.0392H1461.43L1490.29 227.883H1503.38V230.698H1463.96V227.883H1476.35L1454.53 71.8953H1455.66L1432.71 227.883H1444.68V230.698H1416.38ZM1438.48 177.905V174.948H1472.27V177.905H1438.48ZM1477.06 25.8593L1450.87 14.3151C1448.53 13.2827 1446.37 12.0626 1444.4 10.6547C1442.42 9.15304 1441.44 7.32286 1441.44 5.16419C1441.44 3.94408 1441.86 2.86474 1442.71 1.92619C1443.55 0.987639 1444.91 0.518363 1446.79 0.518363C1448.67 0.518363 1450.31 0.940715 1451.72 1.78542C1453.22 2.53626 1454.58 3.52174 1455.8 4.74186L1477.76 24.733L1477.06 25.8593Z" fill="white"/>
</svg>
