<svg width="514" height="81" viewBox="0 0 514 81" fill="none" xmlns="http://www.w3.org/2000/svg">
<path d="M27.76 79.72C26.256 79.72 25.12 79.192 24.352 78.136C23.584 77.048 23.056 75.656 22.768 73.96C22.512 72.264 22.384 70.552 22.384 68.824C22.384 66.648 22.464 64.424 22.624 62.152C22.784 59.88 22.864 57.784 22.864 55.864C22.864 53.144 22.56 51 21.952 49.432C21.376 47.832 20.336 46.68 18.832 45.976C17.36 45.272 15.312 44.92 12.688 44.92H9.52V77.944H13.888V79H0.736V77.944H5.2V12.856H0.736V11.8H15.712C18.112 11.8 20.224 12.344 22.048 13.432C23.872 14.488 25.296 16.168 26.32 18.472C27.344 20.744 27.856 23.72 27.856 27.4C27.856 30.248 27.536 32.728 26.896 34.84C26.256 36.92 25.408 38.648 24.352 40.024C23.296 41.368 22.096 42.392 20.752 43.096C19.408 43.8 18.048 44.216 16.672 44.344C19.648 44.376 21.856 45.016 23.296 46.264C24.768 47.512 25.744 49.224 26.224 51.4C26.736 53.544 26.992 56.072 26.992 58.984C26.992 60.552 26.96 62.152 26.896 63.784C26.832 65.416 26.8 67.032 26.8 68.632C26.8 69.816 26.848 71.144 26.944 72.616C27.072 74.088 27.312 75.352 27.664 76.408C28.048 77.464 28.592 77.992 29.296 77.992C29.552 77.992 29.792 77.88 30.016 77.656C30.272 77.4 30.416 77.096 30.448 76.744H31.408C31.376 77.352 31.168 77.88 30.784 78.328C30.432 78.776 29.984 79.112 29.44 79.336C28.896 79.592 28.336 79.72 27.76 79.72ZM9.52 43.864H14.128C16.496 43.864 18.352 43.112 19.696 41.608C21.04 40.104 21.984 38.12 22.528 35.656C23.072 33.192 23.344 30.504 23.344 27.592C23.344 24.904 23.152 22.456 22.768 20.248C22.384 18.008 21.568 16.216 20.32 14.872C19.104 13.528 17.232 12.856 14.704 12.856H9.52V43.864ZM35.6568 79V77.944H39.9768V12.856H35.6568V11.8H59.8008V24.232H58.7448C58.7448 21.64 58.5848 19.496 58.2648 17.8C57.9448 16.104 57.2408 14.856 56.1528 14.056C55.0968 13.256 53.4168 12.856 51.1128 12.856H44.2968V44.824H55.4808V39.112H56.5368V51.496H55.4808V45.88H44.2968V77.944H50.7288C53.0328 77.944 54.7448 77.528 55.8648 76.696C57.0168 75.864 57.7848 74.6 58.1688 72.904C58.5528 71.176 58.7448 69.016 58.7448 66.424H59.8008V79H35.6568ZM76.2738 80.296C75.2178 80.296 74.2418 80.136 73.3458 79.816C72.4498 79.528 71.6338 79.192 70.8978 78.808C70.1938 78.392 69.5698 78.04 69.0258 77.752C68.5138 77.432 68.0978 77.272 67.7778 77.272C67.2338 77.272 66.9618 77.848 66.9618 79H66.0018V65.56H67.0578C67.1218 66.872 67.3138 68.184 67.6338 69.496C67.9858 70.776 68.4338 71.992 68.9778 73.144C69.5538 74.296 70.2098 75.32 70.9458 76.216C71.7138 77.112 72.5298 77.816 73.3938 78.328C74.2898 78.84 75.2338 79.096 76.2258 79.096C78.4338 79.096 80.0658 78.488 81.1218 77.272C82.2098 76.056 82.9298 74.536 83.2818 72.712C83.6338 70.888 83.8098 69.048 83.8098 67.192C83.8098 64.76 83.3298 62.28 82.3698 59.752C81.4098 57.192 80.2098 54.696 78.7698 52.264C77.3298 49.8 75.8738 47.512 74.4018 45.4C72.0658 42.008 70.2738 39.08 69.0258 36.616C67.7778 34.12 66.9138 31.88 66.4338 29.896C65.9858 27.912 65.7617 25.976 65.7617 24.088C65.7617 21.304 66.2098 18.92 67.1058 16.936C68.0018 14.92 69.2018 13.384 70.7058 12.328C72.2418 11.272 73.9378 10.744 75.7938 10.744C77.2658 10.744 78.4978 10.952 79.4898 11.368C80.4818 11.752 81.2818 12.152 81.8898 12.568C82.5298 12.984 83.0258 13.192 83.3778 13.192C83.6338 13.192 83.8258 13.096 83.9538 12.904C84.0818 12.712 84.1618 12.344 84.1938 11.8H85.1058V25.096H84.0498C83.9538 23.528 83.7298 21.976 83.3778 20.44C83.0578 18.872 82.5778 17.448 81.9378 16.168C81.3298 14.888 80.5298 13.864 79.5378 13.096C78.5778 12.296 77.4098 11.896 76.0338 11.896C74.2738 11.896 72.6738 12.664 71.2338 14.2C69.7938 15.704 69.0738 18.136 69.0738 21.496C69.0738 23.224 69.2818 25.016 69.6978 26.872C70.1458 28.728 70.9458 30.792 72.0978 33.064C73.2818 35.304 74.9138 37.912 76.9938 40.888C78.7538 43.352 80.4178 45.88 81.9858 48.472C83.5538 51.032 84.8178 53.672 85.7778 56.392C86.7698 59.112 87.2657 61.912 87.2657 64.792C87.2657 66.872 87.0258 68.856 86.5458 70.744C86.0978 72.6 85.4258 74.248 84.5298 75.688C83.6338 77.096 82.4978 78.216 81.1218 79.048C79.7458 79.88 78.1298 80.296 76.2738 80.296ZM92.62 79V77.944H97.132V12.856H92.62V11.8H105.964V12.856H101.404V77.944H105.964V79H92.62ZM111.782 79V77.944H116.054V12.856H111.782V11.8H124.07C127.046 11.8 129.734 13 132.134 15.4C134.566 17.768 136.502 21.4 137.942 26.296C139.382 31.16 140.102 37.352 140.102 44.872C140.102 52.456 139.382 58.776 137.942 63.832C136.502 68.888 134.566 72.68 132.134 75.208C129.702 77.736 127.014 79 124.07 79H111.782ZM120.422 77.944H122.918C125.094 77.944 127.126 76.824 129.014 74.584C130.934 72.312 132.47 68.744 133.622 63.88C134.806 59.016 135.398 52.68 135.398 44.872C135.398 38.088 134.87 32.312 133.814 27.544C132.79 22.776 131.446 19.144 129.782 16.648C128.15 14.12 126.422 12.856 124.598 12.856H120.422V77.944ZM145.063 79V77.944H149.383V12.856H145.063V11.8H169.207V24.232H168.151C168.151 21.64 167.991 19.496 167.671 17.8C167.351 16.104 166.647 14.856 165.559 14.056C164.503 13.256 162.823 12.856 160.519 12.856H153.703V44.824H164.887V39.112H165.943V51.496H164.887V45.88H153.703V77.944H160.135C162.439 77.944 164.151 77.528 165.271 76.696C166.423 75.864 167.191 74.6 167.575 72.904C167.959 71.176 168.151 69.016 168.151 66.424H169.207V79H145.063ZM174.592 79V77.944H178.96V12.856H174.592V11.8H183.76L200.608 68.44H200.224V12.856H195.712V11.8H205.552V12.856H201.376V79H199.6L179.872 14.008H180.112V77.944H185.2V79H174.592ZM211.077 79V77.944L227.253 12.856H221.637C219.141 12.856 217.237 13.256 215.925 14.056C214.613 14.856 213.701 16.104 213.189 17.8C212.709 19.496 212.469 21.64 212.469 24.232H211.413V11.8H231.765V12.856L215.253 77.944H222.261C224.469 77.944 226.181 77.528 227.397 76.696C228.613 75.864 229.445 74.6 229.893 72.904C230.373 71.176 230.613 69.016 230.613 66.424H231.669V79H211.077ZM235.288 79V77.944H239.704L249.592 11.608H250.696L260.488 77.944H264.952V79H251.464V77.944H255.688L248.296 24.664H248.68L240.856 77.944H244.936V79H235.288ZM242.824 61.048V59.992H254.344V61.048H242.824ZM280.626 79V77.944H284.898V12.856H280.626V11.8H292.914C295.89 11.8 298.578 13 300.978 15.4C303.41 17.768 305.346 21.4 306.786 26.296C308.226 31.16 308.946 37.352 308.946 44.872C308.946 52.456 308.226 58.776 306.786 63.832C305.346 68.888 303.41 72.68 300.978 75.208C298.546 77.736 295.858 79 292.914 79H280.626ZM289.266 77.944H291.762C293.938 77.944 295.97 76.824 297.858 74.584C299.778 72.312 301.314 68.744 302.466 63.88C303.65 59.016 304.242 52.68 304.242 44.872C304.242 38.088 303.714 32.312 302.658 27.544C301.634 22.776 300.29 19.144 298.626 16.648C296.994 14.12 295.266 12.856 293.442 12.856H289.266V77.944ZM326.631 80.056C323.911 80.056 321.591 78.568 319.671 75.592C317.783 72.584 316.343 68.488 315.351 63.304C314.359 58.12 313.863 52.184 313.863 45.496C313.863 38.776 314.359 32.808 315.351 27.592C316.343 22.376 317.783 18.264 319.671 15.256C321.591 12.248 323.911 10.744 326.631 10.744C329.383 10.744 331.719 12.248 333.639 15.256C335.559 18.264 337.031 22.376 338.055 27.592C339.079 32.808 339.591 38.776 339.591 45.496C339.591 52.184 339.079 58.12 338.055 63.304C337.031 68.488 335.559 72.584 333.639 75.592C331.719 78.568 329.383 80.056 326.631 80.056ZM326.631 79C328.135 79 329.415 78.12 330.471 76.36C331.527 74.6 332.391 72.168 333.063 69.064C333.735 65.96 334.215 62.392 334.503 58.36C334.823 54.328 334.983 50.04 334.983 45.496C334.983 40.952 334.823 36.664 334.503 32.632C334.215 28.568 333.735 24.984 333.063 21.88C332.391 18.744 331.527 16.28 330.471 14.488C329.415 12.696 328.135 11.8 326.631 11.8C325.159 11.8 323.895 12.696 322.839 14.488C321.815 16.28 320.983 18.744 320.343 21.88C319.703 24.984 319.223 28.568 318.903 32.632C318.615 36.664 318.471 40.952 318.471 45.496C318.471 50.04 318.615 54.328 318.903 58.36C319.223 62.392 319.703 65.96 320.343 69.064C320.983 72.168 321.815 74.6 322.839 76.36C323.895 78.12 325.159 79 326.631 79ZM344.467 79V77.944H348.835V12.856H344.467V11.8H353.635L370.483 68.44H370.099V12.856H365.587V11.8H375.427V12.856H371.251V79H369.475L349.747 14.008H349.987V77.944H355.075V79H344.467ZM380.28 79V77.944H384.648V12.856H380.28V11.8H389.448L406.296 68.44H405.911V12.856H401.4V11.8H411.24V12.856H407.064V79H405.288L385.56 14.008H385.8V77.944H390.888V79H380.28ZM413.788 79V77.944H418.204L428.092 11.608H429.196L438.988 77.944H443.452V79H429.964V77.944H434.188L426.796 24.664H427.18L419.356 77.944H423.436V79H413.788ZM421.324 61.048V59.992H432.844V61.048H421.324ZM472.998 79.96C469.062 79.96 465.782 77.064 463.158 71.272C460.566 65.48 459.27 56.888 459.27 45.496C459.27 41.464 459.542 37.416 460.086 33.352C460.63 29.256 461.462 25.512 462.582 22.12C463.734 18.696 465.19 15.944 466.95 13.864C468.71 11.784 470.806 10.744 473.238 10.744C474.934 10.744 476.358 11.352 477.51 12.568C478.694 13.784 479.59 15.32 480.198 17.176C480.806 19.032 481.109 20.936 481.109 22.888C481.109 24.296 480.934 25.288 480.582 25.864C480.262 26.44 479.782 26.728 479.142 26.728C478.438 26.728 477.926 26.456 477.606 25.912C477.318 25.368 477.174 24.536 477.174 23.416C477.174 22.712 477.254 22.088 477.414 21.544C477.606 21 477.766 20.408 477.894 19.768C478.054 19.096 478.134 18.248 478.134 17.224C478.134 16.008 477.718 14.856 476.886 13.768C476.054 12.648 475.046 12.088 473.862 12.088C472.55 12.088 471.35 12.824 470.262 14.296C469.206 15.736 468.278 17.672 467.478 20.104C466.678 22.504 466.006 25.176 465.462 28.12C464.95 31.032 464.55 33.992 464.262 37C464.006 40.008 463.878 42.808 463.878 45.4C463.878 49.208 464.022 52.808 464.31 56.2C464.598 59.56 465.014 62.616 465.558 65.368C466.134 68.088 466.806 70.456 467.574 72.472C468.374 74.456 469.253 75.992 470.214 77.08C471.206 78.168 472.294 78.712 473.478 78.712C474.854 78.712 476.054 78.2 477.078 77.176C478.134 76.12 479.014 74.904 479.718 73.528C480.422 72.152 480.902 70.936 481.158 69.88L482.31 70.552C481.734 72.12 481.014 73.624 480.15 75.064C479.286 76.472 478.262 77.64 477.078 78.568C475.894 79.496 474.534 79.96 472.998 79.96ZM484.194 79V77.944H488.61L498.498 11.608H499.602L509.394 77.944H513.858V79H500.37V77.944H504.594L497.202 24.664H497.586L489.762 77.944H493.842V79H484.194ZM491.73 61.048V59.992H503.25V61.048H491.73ZM504.882 9.20799L495.906 5.224C495.106 4.872 494.37 4.456 493.698 3.976C493.026 3.496 492.69 2.888 492.69 2.152C492.69 1.70399 492.834 1.31999 493.122 0.999994C493.442 0.679995 493.922 0.519995 494.562 0.519995C495.202 0.519995 495.762 0.663996 496.242 0.951998C496.754 1.208 497.218 1.528 497.634 1.912L505.122 8.776L504.882 9.20799Z" fill="white"/>
</svg>
